<?xml version="1.0" encoding="UTF-8"?>
<!DOCTYPE svg PUBLIC "-//W3C//DTD SVG 1.1//EN" "http://www.w3.org/Graphics/SVG/1.1/DTD/svg11.dtd">
<!-- Creator: CorelDRAW 2020 (64 Bit) -->
<svg xmlns="http://www.w3.org/2000/svg" xml:space="preserve" width="210mm" height="297mm" version="1.1" style="shape-rendering:geometricPrecision; text-rendering:geometricPrecision; image-rendering:optimizeQuality; fill-rule:evenodd; clip-rule:evenodd"
viewBox="0 0 21000 29700"
 xmlns:xlink="http://www.w3.org/1999/xlink"
 xmlns:xodm="http://www.corel.com/coreldraw/odm/2003">
 <defs>
  <style type="text/css">
   <![CDATA[
    .str0 {stroke:#FEFEFE;stroke-width:7.62;stroke-miterlimit:22.9256}
    .fil1 {fill:none}
    .fil2 {fill:#2B2A29;fill-rule:nonzero}
    .fil0 {fill:url(#id0)}
   ]]>
  </style>
  <linearGradient id="id0" gradientUnits="userSpaceOnUse" x1="5591.48" y1="17889.37" x2="4483.84" y2="19034.09">
   <stop offset="0" style="stop-opacity:1; stop-color:#682F85"/>
   <stop offset="1" style="stop-opacity:1; stop-color:#B32382"/>
  </linearGradient>
 </defs>
 <g id="Camada_x0020_1_0">
  <metadata id="CorelCorpID_0Corel-Layer"/>
  <g id="_844815072">
   <g>
    <path class="fil0" d="M5038.18 17665.13c440.03,0 796.74,356.71 796.74,796.75 0,440.02 -356.71,796.74 -796.74,796.74 -440.03,0 -796.75,-356.71 -796.75,-796.74 0,-440.04 356.71,-796.75 796.75,-796.75z"/>
    <g>
     <polygon class="fil1 str0" points="5045.07,18458.93 4526.58,18165.81 4521.86,18161.89 5045.62,17865.23 5564.81,18168.85 5558.32,18180.63 "/>
     <polyline class="fil1 str0" points="4519.8,18161.87 4507.99,18748.11 5039.15,19051.28 5045.07,18458.93 "/>
     <polyline class="fil1 str0" points="4521.94,18161.95 5568.36,18175.2 5568.36,18771.28 5043.71,19058.93 "/>
     <line class="fil1 str0" x1="5045.07" y1="17864.81" x2="5050.85" y2= "18168.43" />
     <polyline class="fil1 str0" points="4520.32,18159.24 5042.76,19042.66 5049.33,19043.54 5568.36,18175.2 "/>
     <line class="fil1 str0" x1="5568.36" y1="18762.39" x2="5303.76" y2= "18614.13" />
     <line class="fil1 str0" x1="4507.99" y1="18748.11" x2="4779.49" y2= "18607.46" />
    </g>
   </g>
   <polygon class="fil2" points="6035.31,18595.76 5900.69,18003.09 6072.56,18003.09 6186.02,18517.02 6076.8,18517.02 6399.38,18003.09 6572.1,18003.09 6200.41,18595.76 "/>
   <path id="1" class="fil2" d="M6715.19 18232.54l275.17 0 -24.56 125.31 -275.17 0 24.56 -125.31zm-34.72 233.68l310.73 0 -27.09 129.54 -474.98 0 118.53 -592.67 463.98 0 -26.25 129.54 -298.88 0 -66.04 333.59z"/>
   <path id="2" class="fil2" d="M7058.09 18595.76l118.53 -592.67 253.15 0c76.21,0 135.05,16.65 176.54,49.95 41.48,33.31 62.23,79.59 62.23,138.86 0,49.67 -12,92.99 -35.99,129.96 -23.99,36.97 -57.99,65.62 -102.02,85.94 -44.03,20.32 -95.96,30.48 -155.79,30.48l-192.19 0 88.9 -71.97 -45.72 229.45 -167.64 0zm371.68 0l-121.07 -215.9 173.57 0 122.77 215.9 -175.27 0zm-162.56 -209.97l-58.42 -77.05 173.57 0c37.25,0 66.04,-8.75 86.36,-26.25 20.32,-17.5 30.48,-42.33 30.48,-74.5 0,-24.84 -8.18,-43.19 -24.55,-55.04 -16.37,-11.85 -39.23,-17.78 -68.58,-17.78l-161.72 0 89.75 -79.59 -66.89 330.21z"/>
   <path id="3" class="fil2" d="M7905.61 18607.61c-33.87,0 -66.32,-2.68 -97.37,-8.04 -31.04,-5.36 -59.27,-12.98 -84.67,-22.86 -25.4,-9.88 -47.13,-20.74 -65.19,-32.6l66.04 -125.3c20.32,12.41 41.35,23 63.08,31.75 21.73,8.75 43.88,15.38 66.46,19.89 22.58,4.52 45.16,6.78 67.73,6.78 21.45,0 39.8,-2.12 55.04,-6.35 15.24,-4.24 26.81,-10.3 34.71,-18.21 7.9,-7.9 11.85,-17.21 11.85,-27.94 0,-11.85 -5.22,-21.31 -15.66,-28.36 -10.44,-7.06 -24.13,-13.12 -41.06,-18.2 -16.94,-5.08 -35.7,-10.31 -56.31,-15.67 -20.6,-5.36 -41.2,-11.85 -61.8,-19.47 -20.6,-7.62 -39.37,-17.22 -56.31,-28.79 -16.93,-11.57 -30.62,-26.39 -41.06,-44.45 -10.44,-18.06 -15.66,-40.36 -15.66,-66.88 0,-42.9 11.57,-80.16 34.71,-111.77 23.14,-31.6 56.02,-56.16 98.64,-73.66 42.61,-17.49 92.99,-26.24 151.13,-26.24 42.33,0 81.84,4.37 118.53,13.12 36.69,8.75 68.3,21.31 94.83,37.68l-60.96 124.46c-23.14,-14.68 -48.68,-25.83 -76.62,-33.45 -27.95,-7.62 -56.59,-11.43 -85.94,-11.43 -22.58,0 -41.91,2.54 -58,7.62 -16.09,5.08 -28.22,12 -36.41,20.75 -8.18,8.75 -12.27,18.48 -12.27,29.21 0,11.29 5.08,20.6 15.24,27.94 10.16,7.34 23.85,13.55 41.06,18.63 17.22,5.08 36.13,10.3 56.73,15.66 20.6,5.36 41.06,11.57 61.38,18.63 20.32,7.05 39.23,16.36 56.73,27.94 17.5,11.57 31.33,26.1 41.49,43.6 10.16,17.5 15.24,39.23 15.24,65.19 0,42.34 -11.58,79.31 -34.72,110.92 -23.14,31.61 -56.16,56.16 -99.06,73.66 -42.9,17.49 -93.41,26.24 -151.55,26.24z"/>
   <path id="4" class="fil2" d="M8458.49 18232.54l275.17 0 -24.56 125.31 -275.17 0 24.56 -125.31zm-34.72 233.68l310.73 0 -27.09 129.54 -474.98 0 118.53 -592.67 463.98 0 -26.25 129.54 -298.88 0 -66.04 333.59z"/>
   <path id="5" class="fil2" d="M8938.55 18281.65l326.81 0 -5.08 26.24 -326.81 0 5.08 -26.24zm-52.5 287.86l372.54 0 -5.93 26.25 -400.47 0 118.53 -592.67 387.78 0 -5.08 26.25 -359.84 0 -107.53 540.17z"/>
   <polygon id="6" class="fil2" points="9417.77,18595.76 9536.3,18003.09 9560.01,18003.09 9880.05,18562.74 9869.89,18560.2 9980.8,18003.09 10009.59,18003.09 9891.06,18595.76 9867.35,18595.76 9547.31,18036.11 9557.47,18038.65 9446.55,18595.76 "/>
   <path id="7" class="fil2" d="M10194.17 18281.65l326.81 0 -5.08 26.24 -326.81 0 5.08 -26.24zm-52.5 287.86l372.54 0 -5.93 26.25 -400.47 0 118.53 -592.67 387.78 0 -5.08 26.25 -359.84 0 -107.53 540.17z"/>
   <path id="8" class="fil2" d="M10673.39 18595.76l118.53 -592.67 203.2 0c63.78,0 113.31,13.97 148.59,41.91 35.28,27.94 52.92,67.31 52.92,118.11 0,50.8 -11.01,93.56 -33.02,128.27 -22.01,34.72 -53.2,60.82 -93.56,78.32 -40.36,17.5 -88.19,26.25 -143.51,26.25l-197.27 0 15.24 -12.7 -42.34 212.51 -28.78 0zm418.25 0l-121.92 -215.05 32.17 0 121.08 215.05 -31.33 0zm-347.13 -212.51l-10.16 -12.7 191.34 0c76.77,0 136.32,-17.22 178.65,-51.65 42.34,-34.43 63.5,-85.8 63.5,-154.1 0,-43.46 -14.96,-76.9 -44.87,-100.33 -29.92,-23.42 -72.81,-35.13 -128.7,-35.13l-191.34 0 15.24 -13.55 -73.66 367.46z"/>
   <path id="9" class="fil2" d="M11544.61 18599.15c-57.57,0 -106.4,-10.16 -146.47,-30.48 -40.08,-20.32 -70.56,-48.69 -91.44,-85.09 -20.89,-36.41 -31.33,-78.32 -31.33,-125.73 0,-47.98 8.18,-93.42 24.55,-136.32 16.37,-42.9 39.94,-81 70.7,-114.3 30.76,-33.3 68.3,-59.55 112.61,-78.74 44.31,-19.19 94.4,-28.79 150.28,-28.79 46.29,0 87.35,6.92 123.19,20.75 35.84,13.83 63.93,32.88 84.25,57.15l-20.32 18.62c-20.32,-23.14 -46.29,-40.64 -77.9,-52.49 -31.61,-11.85 -68.86,-17.78 -111.76,-17.78 -49.67,0 -94.68,8.75 -135.04,26.25 -40.36,17.5 -74.79,41.48 -103.3,71.96 -28.5,30.48 -50.37,65.62 -65.61,105.42 -15.24,39.79 -22.86,82.26 -22.86,127.42 0,42.33 9.17,79.73 27.51,112.18 18.35,32.46 45.58,57.86 81.71,76.2 36.12,18.35 81,27.52 134.62,27.52 38.94,0 74.08,-6.35 105.41,-19.05 31.33,-12.7 59.97,-30.34 85.94,-52.92l12.7 22.02c-25.97,23.14 -56.73,41.62 -92.29,55.45 -35.56,13.83 -73.94,20.75 -115.15,20.75zm180.34 -77.9l43.18 -217.59 27.1 0 -43.18 219.29 -27.1 -1.7z"/>
   <polygon id="10" class="fil2" points="12074.62,18595.76 12116.96,18384.94 12120.34,18404.41 11953.55,18003.09 11983.18,18003.09 12138.12,18377.32 12124.58,18378.17 12429.38,18003.09 12462.4,18003.09 12134.74,18406.11 12145.74,18384.94 12103.41,18595.76 "/>
   <g transform="matrix(1.09069 0 0 1 -5450.15 4022.82)">
    <path class="fil2" d="M6025.71 18872.82l43.41 -199.02 74.11 0c23.36,0 41.5,4.69 54.43,14.08 12.91,9.38 19.38,22.6 19.38,39.66 0,17.06 -3.98,31.41 -11.95,43.07 -7.96,11.66 -19.32,20.47 -34.1,26.44 -14.79,5.97 -32.41,8.96 -52.88,8.96l-71.94 0 5.58 -4.55 -15.51 71.36 -10.53 0zm26.04 -71.36l-3.72 -4.27 70.08 0c28.12,0 49.93,-5.78 65.43,-17.34 15.51,-11.56 23.26,-28.81 23.26,-51.74 0,-14.6 -5.48,-25.83 -16.43,-33.69 -10.96,-7.87 -26.67,-11.8 -47.14,-11.8l-70.08 0 5.58 -4.84 -26.98 123.68z"/>
    <path id="1" class="fil2" d="M6302.93 18873.67c-14.06,0 -26.35,-2.46 -36.9,-7.39 -10.55,-4.93 -18.66,-11.94 -24.34,-21.04 -5.68,-9.1 -8.53,-19.8 -8.53,-32.13 0,-17.05 3.92,-32.26 11.79,-45.63 7.85,-13.36 18.65,-23.93 32.4,-31.7 13.75,-7.77 29.51,-11.65 47.29,-11.65 14.47,0 26.87,2.46 37.21,7.39 10.34,4.93 18.34,11.94 24.04,21.04 5.68,9.09 8.52,19.9 8.52,32.41 0,16.87 -3.93,32.03 -11.78,45.49 -7.86,13.46 -18.66,24.02 -32.41,31.7 -13.74,7.67 -29.51,11.51 -47.29,11.51zm1.24 -8.53c15.51,0 29.26,-3.46 41.24,-10.37 12,-6.92 21.46,-16.4 28.38,-28.43 6.93,-12.04 10.39,-25.73 10.39,-41.09 0,-16.68 -5.33,-29.57 -15.97,-38.66 -10.65,-9.1 -25.48,-13.65 -44.5,-13.65 -15.29,0 -28.99,3.46 -41.09,10.38 -12.09,6.92 -21.65,16.39 -28.68,28.43 -7.03,12.03 -10.55,25.73 -10.55,41.08 0,16.49 5.33,29.33 15.98,38.52 10.64,9.2 25.57,13.79 44.8,13.79z"/>
    <polygon id="2" class="fil2" points="6455.19,18872.82 6422.32,18725.26 6431.93,18725.26 6462.94,18867.13 6458.59,18867.13 6546.97,18725.26 6555.66,18725.26 6587.91,18867.13 6583.26,18867.13 6670.4,18725.26 6680.93,18725.26 6589.77,18872.82 6580.15,18872.82 6548.22,18734.08 6551.63,18734.08 6464.8,18872.82 "/>
    <path id="3" class="fil2" d="M6748.85 18873.67c-14.89,0 -27.76,-2.41 -38.61,-7.25 -10.85,-4.83 -19.12,-11.8 -24.8,-20.89 -5.7,-9.1 -8.53,-20.09 -8.53,-32.98 0,-16.87 3.77,-31.94 11.31,-45.21 7.55,-13.27 17.89,-23.79 31.02,-31.56 13.12,-7.77 27.95,-11.65 44.49,-11.65 13.85,0 25.74,2.41 35.66,7.25 9.93,4.83 17.57,11.79 22.95,20.89 5.38,9.1 8.06,20 8.06,32.7 0,2.65 -0.15,5.31 -0.47,7.96 -0.3,2.65 -0.66,5.12 -1.08,7.39l-144.2 0 1.87 -7.96 137.67 0 -4.34 3.98c2.49,-13.84 1.56,-25.45 -2.79,-34.83 -4.34,-9.38 -11.16,-16.53 -20.46,-21.46 -9.3,-4.93 -20.36,-7.39 -33.18,-7.39 -14.68,0 -27.8,3.45 -39.38,10.37 -11.58,6.92 -20.67,16.35 -27.29,28.29 -6.61,11.94 -9.93,25.59 -9.93,40.94 0,17.06 5.38,30.14 16.13,39.24 10.75,9.09 26.37,13.64 46.83,13.64 11.78,0 22.63,-1.84 32.55,-5.54 9.93,-3.7 18.1,-8.86 24.5,-15.5l4.96 6.54c-6.61,7.02 -15.5,12.61 -26.66,16.78 -11.16,4.17 -23.26,6.25 -36.28,6.25z"/>
    <path id="4" class="fil2" d="M6864.2 18872.82l31.95 -147.56 10.23 0 -9.93 45.21 -1.85 -3.13c6.82,-13.84 16.27,-24.5 28.37,-31.98 12.09,-7.49 27.44,-11.23 46.05,-11.23l-1.86 9.38c-0.62,0 -1.24,0 -1.86,0 -0.62,0 -1.25,0 -1.87,0 -19.01,0 -34.67,5.26 -46.97,15.78 -12.31,10.52 -20.73,26.2 -25.27,47.05l-16.75 76.48 -10.24 0z"/>
    <path id="5" class="fil2" d="M7048.71 18873.67c-14.88,0 -27.75,-2.41 -38.61,-7.25 -10.85,-4.83 -19.12,-11.8 -24.8,-20.89 -5.69,-9.1 -8.53,-20.09 -8.53,-32.98 0,-16.87 3.78,-31.94 11.31,-45.21 7.55,-13.27 17.89,-23.79 31.02,-31.56 13.12,-7.77 27.96,-11.65 44.49,-11.65 13.85,0 25.74,2.41 35.67,7.25 9.92,4.83 17.57,11.79 22.95,20.89 5.37,9.1 8.06,20 8.06,32.7 0,2.65 -0.16,5.31 -0.47,7.96 -0.31,2.65 -0.67,5.12 -1.08,7.39l-144.2 0 1.86 -7.96 137.68 0 -4.34 3.98c2.49,-13.84 1.56,-25.45 -2.79,-34.83 -4.34,-9.38 -11.16,-16.53 -20.47,-21.46 -9.3,-4.93 -20.36,-7.39 -33.17,-7.39 -14.68,0 -27.81,3.45 -39.39,10.37 -11.57,6.92 -20.67,16.35 -27.29,28.29 -6.61,11.94 -9.92,25.59 -9.92,40.94 0,17.06 5.37,30.14 16.13,39.24 10.74,9.09 26.36,13.64 46.82,13.64 11.78,0 22.63,-1.84 32.56,-5.54 9.92,-3.7 18.09,-8.86 24.5,-15.5l4.96 6.54c-6.61,7.02 -15.5,12.61 -26.67,16.78 -11.16,4.17 -23.25,6.25 -36.28,6.25z"/>
    <path id="6" class="fil2" d="M7229.5 18873.67c-13.85,0 -25.99,-2.41 -36.43,-7.25 -10.44,-4.83 -18.51,-11.8 -24.19,-20.89 -5.69,-9.1 -8.53,-19.91 -8.53,-32.42 0,-12.69 2.22,-24.45 6.67,-35.25 4.44,-10.8 10.75,-20.23 18.91,-28.29 8.16,-8.05 17.78,-14.31 28.84,-18.76 11.06,-4.46 23.31,-6.68 36.75,-6.68 14.06,0 26.1,2.37 36.12,7.1 10.03,4.74 17.68,11.52 22.95,20.33 5.27,8.82 7.91,19.38 7.91,31.7 0,13.08 -2.12,25.12 -6.36,36.11 -4.23,10.99 -10.29,20.52 -18.14,28.57 -7.85,8.06 -17.27,14.36 -28.22,18.91 -10.96,4.55 -23.05,6.82 -36.28,6.82zm1.86 -8.53c15.51,0 29.25,-3.46 41.24,-10.37 12,-6.92 21.46,-16.4 28.38,-28.43 6.93,-12.04 10.38,-25.73 10.38,-41.09 0,-16.68 -5.32,-29.57 -15.96,-38.66 -10.65,-9.1 -25.48,-13.65 -44.5,-13.65 -15.3,0 -28.99,3.46 -41.09,10.38 -12.1,6.92 -21.65,16.39 -28.69,28.43 -7.02,12.03 -10.54,25.73 -10.54,41.08 0,16.49 5.33,29.33 15.98,38.52 10.64,9.2 25.57,13.79 44.8,13.79zm62.64 7.68l10.85 -49.19 8.38 -22.46 1.55 -24.16 25.12 -115.15 10.23 0 -45.9 210.96 -10.23 0z"/>
    <path id="7" class="fil2" d="M7451.21 18872.82l45.9 -210.96 10.23 0 -24.5 112.59 -8.68 22.46 -1.55 23.6 -11.47 52.31 -9.93 0zm84.66 0.85c-14.06,0 -26.1,-2.32 -36.12,-6.96 -10.02,-4.65 -17.63,-11.38 -22.8,-20.19 -5.17,-8.81 -7.85,-19.47 -8.06,-31.98 0,-12.89 2.12,-24.83 6.36,-35.83 4.23,-10.99 10.29,-20.56 18.14,-28.71 7.85,-8.15 17.27,-14.5 28.22,-19.05 10.96,-4.55 23.05,-6.82 36.28,-6.82 14.06,0 26.26,2.46 36.6,7.39 10.33,4.93 18.34,11.89 24.02,20.89 5.69,9.01 8.53,19.86 8.53,32.56 0,12.7 -2.28,24.45 -6.82,35.25 -4.55,10.81 -10.86,20.24 -18.92,28.29 -8.06,8.06 -17.68,14.26 -28.83,18.62 -11.17,4.36 -23.37,6.54 -36.6,6.54zm0.62 -8.53c15.51,0 29.26,-3.46 41.24,-10.37 12,-6.92 21.5,-16.4 28.54,-28.43 7.02,-12.04 10.54,-25.73 10.54,-41.09 0,-16.68 -5.32,-29.57 -15.98,-38.66 -10.64,-9.1 -25.57,-13.65 -44.8,-13.65 -15.29,0 -28.99,3.41 -41.09,10.23 -12.09,6.83 -21.6,16.26 -28.53,28.29 -6.93,12.04 -10.38,25.83 -10.38,41.37 0,16.49 5.32,29.33 15.96,38.52 10.65,9.2 25.48,13.79 44.5,13.79z"/>
    <path id="8" class="fil2" d="M7637.9 18928.83c-7.03,0 -13.75,-1.14 -20.16,-3.41 -6.4,-2.28 -11.36,-5.5 -14.88,-9.67l6.82 -6.82c3.51,3.98 7.7,6.92 12.57,8.81 4.85,1.9 10.48,2.84 16.89,2.84 7.23,0 14.06,-1.89 20.46,-5.68 6.41,-3.79 13.34,-10.81 20.78,-21.04l17.36 -24.45 2.17 -2.28 100.79 -141.87 11.16 0 -122.48 171.73c-6,8.15 -11.63,14.54 -16.91,19.19 -5.27,4.64 -10.7,7.91 -16.27,9.81 -5.59,1.89 -11.68,2.84 -18.3,2.84zm59.23 -52.6l-42.48 -150.97 10.54 0 39.38 141.31 -7.44 9.66z"/>
    <polygon id="9" class="fil2" points="7959.47,18872.82 7905.51,18673.8 7916.36,18673.8 7968.15,18866.28 7962.57,18866.28 8098.7,18673.8 8110.48,18673.8 7969.71,18872.82 "/>
    <path id="10" class="fil2" d="M8155.45 18873.67c-14.89,0 -27.76,-2.41 -38.61,-7.25 -10.85,-4.83 -19.12,-11.8 -24.8,-20.89 -5.69,-9.1 -8.53,-20.09 -8.53,-32.98 0,-16.87 3.77,-31.94 11.31,-45.21 7.55,-13.27 17.89,-23.79 31.02,-31.56 13.12,-7.77 27.96,-11.65 44.49,-11.65 13.85,0 25.74,2.41 35.67,7.25 9.92,4.83 17.57,11.79 22.94,20.89 5.38,9.1 8.06,20 8.06,32.7 0,2.65 -0.15,5.31 -0.46,7.96 -0.31,2.65 -0.67,5.12 -1.08,7.39l-144.21 0 1.87 -7.96 137.68 0 -4.34 3.98c2.48,-13.84 1.56,-25.45 -2.8,-34.83 -4.34,-9.38 -11.15,-16.53 -20.46,-21.46 -9.3,-4.93 -20.36,-7.39 -33.18,-7.39 -14.68,0 -27.8,3.45 -39.38,10.37 -11.57,6.92 -20.67,16.35 -27.29,28.29 -6.61,11.94 -9.92,25.59 -9.92,40.94 0,17.06 5.37,30.14 16.13,39.24 10.74,9.09 26.36,13.64 46.82,13.64 11.78,0 22.63,-1.84 32.56,-5.54 9.92,-3.7 18.09,-8.86 24.49,-15.5l4.97 6.54c-6.61,7.02 -15.5,12.61 -26.67,16.78 -11.16,4.17 -23.25,6.25 -36.28,6.25z"/>
    <path id="11" class="fil2" d="M8270.8 18872.82l31.95 -147.56 10.23 0 -9.92 45.21 -1.86 -3.13c6.82,-13.84 16.28,-24.5 28.37,-31.98 12.1,-7.49 27.44,-11.23 46.05,-11.23l-1.85 9.38c-0.63,0 -1.25,0 -1.87,0 -0.62,0 -1.24,0 -1.86,0 -19.01,0 -34.68,5.26 -46.98,15.78 -12.3,10.52 -20.72,26.2 -25.27,47.05l-16.74 76.48 -10.25 0z"/>
    <path id="12" class="fil2" d="M8431.14 18873.67c-12.4,0 -24.19,-1.8 -35.35,-5.4 -11.17,-3.6 -19.74,-8.15 -25.74,-13.65l6.19 -7.39c6.21,5.5 14.27,9.91 24.19,13.22 9.93,3.32 20.37,4.98 31.33,4.98 17.78,0 31.63,-3.03 41.54,-9.1 9.93,-6.07 14.89,-14.41 14.89,-25.02 0,-6.82 -2.22,-12.04 -6.66,-15.64 -4.45,-3.6 -10.29,-6.3 -17.53,-8.1 -7.23,-1.8 -14.88,-3.41 -22.94,-4.83 -8.07,-1.42 -15.71,-3.27 -22.95,-5.55 -7.24,-2.27 -13.07,-5.68 -17.52,-10.23 -4.44,-4.55 -6.67,-10.99 -6.67,-19.33 0,-8.72 2.69,-16.35 8.06,-22.89 5.38,-6.54 12.98,-11.61 22.8,-15.21 9.81,-3.6 21.23,-5.4 34.27,-5.4 9.91,0 19.63,1.32 29.14,3.98 9.51,2.65 17.06,6.35 22.64,11.08l-5.58 7.11c-6,-4.55 -13.13,-7.96 -21.4,-10.23 -8.27,-2.28 -16.85,-3.41 -25.74,-3.41 -16.54,0 -29.67,3.12 -39.37,9.38 -9.72,6.25 -14.59,14.59 -14.59,25.02 0,6.82 2.23,12.08 6.68,15.78 4.44,3.69 10.27,6.44 17.51,8.24 7.24,1.8 14.89,3.41 22.95,4.83 8.06,1.43 15.71,3.27 22.95,5.55 7.23,2.27 13.08,5.64 17.52,10.09 4.45,4.46 6.66,10.76 6.66,18.91 0,9.1 -2.74,16.87 -8.21,23.31 -5.48,6.45 -13.29,11.37 -23.42,14.79 -10.12,3.41 -22.01,5.11 -35.65,5.11z"/>
    <path id="13" class="fil2" d="M8604.18 18873.67c-14.89,0 -27.76,-2.41 -38.62,-7.25 -10.85,-4.83 -19.11,-11.8 -24.8,-20.89 -5.69,-9.1 -8.53,-20.09 -8.53,-32.98 0,-16.87 3.78,-31.94 11.31,-45.21 7.55,-13.27 17.89,-23.79 31.02,-31.56 13.12,-7.77 27.96,-11.65 44.49,-11.65 13.85,0 25.74,2.41 35.67,7.25 9.92,4.83 17.57,11.79 22.95,20.89 5.37,9.1 8.06,20 8.06,32.7 0,2.65 -0.16,5.31 -0.47,7.96 -0.31,2.65 -0.67,5.12 -1.08,7.39l-144.2 0 1.86 -7.96 137.68 0 -4.34 3.98c2.49,-13.84 1.56,-25.45 -2.79,-34.83 -4.34,-9.38 -11.16,-16.53 -20.46,-21.46 -9.31,-4.93 -20.37,-7.39 -33.18,-7.39 -14.68,0 -27.8,3.45 -39.39,10.37 -11.57,6.92 -20.67,16.35 -27.29,28.29 -6.61,11.94 -9.92,25.59 -9.92,40.94 0,17.06 5.37,30.14 16.13,39.24 10.74,9.09 26.36,13.64 46.82,13.64 11.78,0 22.63,-1.84 32.56,-5.54 9.93,-3.7 18.09,-8.86 24.5,-15.5l4.96 6.54c-6.61,7.02 -15.5,12.61 -26.67,16.78 -11.16,4.17 -23.25,6.25 -36.27,6.25z"/>
    <path id="14" class="fil2" d="M8724.81 18872.82l43.41 -199.02 87.75 0c19.85,0 35.46,3.41 46.83,10.24 11.37,6.82 17.06,16.96 17.06,30.42 0,13.08 -3.47,23.98 -10.4,32.69 -6.93,8.72 -16.12,15.26 -27.59,19.62 -11.48,4.36 -24.14,6.54 -37.99,6.54l5.89 -3.98c18.81,0 33.7,3.51 44.66,10.52 10.95,7.01 16.43,17.63 16.43,31.84 0,13.08 -3.61,24.17 -10.86,33.27 -7.23,9.1 -17.57,16.01 -31,20.75 -13.44,4.74 -29.77,7.11 -49,7.11l-95.19 0zm12.4 -8.53l84.34 0c25.23,0 44.65,-4.45 58.3,-13.36 13.64,-8.91 20.47,-21.8 20.47,-38.67 0,-13.08 -4.91,-22.41 -14.73,-28 -9.82,-5.59 -24.35,-8.39 -43.57,-8.39l-87.75 0 1.85 -8.24 80 0c14.06,0 26.57,-1.95 37.53,-5.83 10.95,-3.89 19.59,-9.67 25.9,-17.35 6.3,-7.67 9.45,-17.2 9.45,-28.57 0,-11.18 -4.75,-19.57 -14.26,-25.16 -9.51,-5.59 -22.84,-8.39 -40.01,-8.39l-77.83 0 -39.69 181.96z"/>
    <path id="15" class="fil2" d="M9017.53 18873.67c-13.85,0 -25.99,-2.41 -36.43,-7.25 -10.44,-4.83 -18.51,-11.8 -24.19,-20.89 -5.69,-9.1 -8.53,-19.91 -8.53,-32.42 0,-12.69 2.22,-24.45 6.67,-35.25 4.44,-10.8 10.75,-20.23 18.91,-28.29 8.16,-8.05 17.78,-14.31 28.84,-18.76 11.06,-4.46 23.31,-6.68 36.75,-6.68 14.06,0 26.1,2.37 36.12,7.1 10.03,4.74 17.68,11.52 22.95,20.33 5.27,8.82 7.91,19.38 7.91,31.7 0.2,17.25 -3.46,32.7 -11.01,46.34 -7.55,13.65 -17.98,24.41 -31.32,32.27 -13.33,7.87 -28.89,11.8 -46.67,11.8zm1.86 -8.53c15.51,0 29.25,-3.46 41.24,-10.37 12,-6.92 21.46,-16.4 28.38,-28.43 6.93,-12.04 10.38,-25.73 10.38,-41.09 0,-16.68 -5.32,-29.57 -15.96,-38.66 -10.65,-9.1 -25.48,-13.65 -44.5,-13.65 -15.3,0 -28.99,3.46 -41.09,10.38 -12.1,6.92 -21.65,16.39 -28.69,28.43 -7.02,12.03 -10.54,25.73 -10.54,41.08 0,16.49 5.33,29.33 15.98,38.52 10.64,9.2 25.57,13.79 44.8,13.79zm62.64 7.68l10.85 -49.19 8.38 -22.46 1.55 -24.16 11.16 -51.75 10.24 0 -31.95 147.56 -10.23 0z"/>
    <path id="16" class="fil2" d="M9265.61 18724.13c14.68,0 26.56,2.65 35.66,7.96 9.1,5.3 15.25,12.6 18.44,21.89 3.21,9.29 3.47,20.09 0.78,32.41l-18.91 86.43 -10.23 0 18.91 -86.43c3.51,-16.49 1.39,-29.52 -6.36,-39.09 -7.74,-9.57 -21.24,-14.36 -40.47,-14.36 -19.43,0 -35.7,4.93 -48.84,14.78 -13.12,9.86 -21.76,24.45 -25.89,43.79l-17.67 81.31 -10.24 0 31.95 -147.56 10.23 0 -9.31 42.65 -3.72 -0.85c7.65,-14.98 17.99,-25.88 31.01,-32.7 13.03,-6.82 27.91,-10.23 44.66,-10.23z"/>
    <path id="17" class="fil2" d="M9385.61 18830.17l1.55 -11.65 131.49 -93.26 15.19 0 -84.66 59.99 -6.2 4.55 -57.37 40.37zm-17.05 42.65l45.89 -210.96 10.23 0 -45.88 210.96 -10.24 0zm127.76 0l-55.51 -84.16 7.76 -6.53 59.85 90.69 -12.1 0z"/>
    <path id="18" class="fil2" d="M9687.65 18873.67c-13.85,0 -25.99,-2.41 -36.43,-7.25 -10.44,-4.83 -18.51,-11.8 -24.19,-20.89 -5.68,-9.1 -8.53,-19.91 -8.53,-32.42 0,-12.69 2.22,-24.45 6.67,-35.25 4.44,-10.8 10.75,-20.23 18.92,-28.29 8.16,-8.05 17.78,-14.31 28.84,-18.76 11.05,-4.46 23.3,-6.68 36.74,-6.68 14.06,0 26.1,2.37 36.12,7.1 10.03,4.74 17.68,11.52 22.95,20.33 5.27,8.82 7.91,19.38 7.91,31.7 0.21,17.25 -3.46,32.7 -11,46.34 -7.55,13.65 -17.99,24.41 -31.33,32.27 -13.33,7.87 -28.89,11.8 -46.67,11.8zm1.86 -8.53c15.51,0 29.26,-3.46 41.24,-10.37 12,-6.92 21.46,-16.4 28.38,-28.43 6.93,-12.04 10.39,-25.73 10.39,-41.09 0,-16.68 -5.33,-29.57 -15.97,-38.66 -10.65,-9.1 -25.48,-13.65 -44.5,-13.65 -15.29,0 -28.99,3.46 -41.09,10.38 -12.09,6.92 -21.65,16.39 -28.68,28.43 -7.03,12.03 -10.55,25.73 -10.55,41.08 0,16.49 5.33,29.33 15.98,38.52 10.64,9.2 25.58,13.79 44.8,13.79zm62.64 7.68l10.86 -49.19 8.37 -22.46 1.55 -24.16 11.16 -51.75 10.24 0 -31.95 147.56 -10.23 0z"/>
    <path id="19" class="fil2" d="M9935.73 18724.13c14.68,0 26.57,2.65 35.66,7.96 9.1,5.3 15.25,12.6 18.45,21.89 3.2,9.29 3.47,20.09 0.77,32.41l-18.91 86.43 -10.23 0 18.91 -86.43c3.51,-16.49 1.4,-29.52 -6.36,-39.09 -7.74,-9.57 -21.23,-14.36 -40.46,-14.36 -19.44,0 -35.71,4.93 -48.84,14.78 -13.12,9.86 -21.76,24.45 -25.9,43.79l-17.67 81.31 -10.24 0 31.95 -147.56 10.23 0 -9.3 42.65 -3.72 -0.85c7.64,-14.98 17.98,-25.88 31,-32.7 13.03,-6.82 27.92,-10.23 44.66,-10.23z"/>
    <path id="20" class="fil2" d="M10104.11 18873.67c-13.85,0 -25.99,-2.41 -36.43,-7.25 -10.44,-4.83 -18.51,-11.8 -24.19,-20.89 -5.68,-9.1 -8.53,-19.91 -8.53,-32.42 0,-12.69 2.22,-24.45 6.67,-35.25 4.44,-10.8 10.75,-20.23 18.92,-28.29 8.16,-8.05 17.78,-14.31 28.83,-18.76 11.06,-4.46 23.31,-6.68 36.75,-6.68 14.06,0 26.1,2.37 36.12,7.1 10.03,4.74 17.68,11.52 22.95,20.33 5.27,8.82 7.91,19.38 7.91,31.7 0,13.08 -2.12,25.12 -6.36,36.11 -4.23,10.99 -10.28,20.52 -18.14,28.57 -7.85,8.06 -17.26,14.36 -28.21,18.91 -10.96,4.55 -23.06,6.82 -36.29,6.82zm1.86 -8.53c15.51,0 29.26,-3.46 41.24,-10.37 12,-6.92 21.46,-16.4 28.38,-28.43 6.93,-12.04 10.39,-25.73 10.39,-41.09 0,-16.68 -5.33,-29.57 -15.97,-38.66 -10.65,-9.1 -25.48,-13.65 -44.5,-13.65 -15.29,0 -28.99,3.46 -41.09,10.38 -12.09,6.92 -21.65,16.39 -28.68,28.43 -7.03,12.03 -10.55,25.73 -10.55,41.08 0,16.49 5.33,29.33 15.98,38.52 10.64,9.2 25.58,13.79 44.8,13.79zm62.64 7.68l10.86 -49.19 8.37 -22.46 1.55 -24.16 25.12 -115.15 10.23 0 -45.9 210.96 -10.23 0z"/>
    <path id="21" class="fil2" d="M10293.58 18872.82l143.89 -199.02 10.23 0 57.05 199.02 -10.54 0 -54.57 -192.48 4.34 0 -138.62 192.48 -11.78 0zm47.45 -58.28l5.89 -8.25 132.72 0 2.17 8.25 -140.78 0z"/>
    <polygon id="22" class="fil2" points="10504.77,18872.82 10614.23,18767.06 10613.61,18772.17 10554.06,18673.8 10565.23,18673.8 10621.04,18766.49 10616.4,18765.07 10710.97,18673.8 10723.07,18673.8 10621.67,18771.61 10621.97,18767.63 10685.85,18872.82 10674.7,18872.82 10615.15,18774.16 10618.87,18774.73 10517.17,18872.82 "/>
    <path id="23" class="fil2" d="M10786.33 18873.96c-10.34,0 -20.47,-1.23 -30.39,-3.7 -9.92,-2.46 -18.77,-5.73 -26.51,-9.81 -7.76,-4.07 -13.7,-8.67 -17.84,-13.79l6.21 -6.82c4.34,4.74 10.12,9.05 17.36,12.94 7.23,3.88 15.35,6.96 24.35,9.24 8.98,2.27 18.14,3.41 27.44,3.41 14.25,0 26.87,-1.85 37.82,-5.55 10.97,-3.69 19.5,-9.14 25.59,-16.34 6.1,-7.21 9.14,-15.83 9.14,-25.88 0,-7.58 -2.11,-13.69 -6.35,-18.33 -4.24,-4.65 -9.77,-8.44 -16.58,-11.38 -6.83,-2.93 -14.38,-5.4 -22.65,-7.39 -8.27,-1.99 -16.48,-4.22 -24.65,-6.68 -8.17,-2.46 -15.66,-5.4 -22.48,-8.81 -6.82,-3.42 -12.35,-7.87 -16.59,-13.37 -4.24,-5.49 -6.35,-12.6 -6.35,-21.32 0,-12.32 3.56,-22.79 10.69,-31.42 7.14,-8.62 16.85,-15.16 29.15,-19.61 12.3,-4.46 26.21,-6.68 41.71,-6.68 11.98,0 23.66,1.51 35.04,4.54 11.37,3.04 20.99,7.4 28.84,13.08l-5.59 7.96c-7.64,-5.49 -16.48,-9.71 -26.51,-12.65 -10.02,-2.94 -20.72,-4.4 -32.09,-4.4 -13.85,0 -26.15,1.89 -36.91,5.68 -10.74,3.79 -19.12,9.29 -25.12,16.49 -5.98,7.2 -9.09,15.92 -9.29,26.16 0,7.39 2.12,13.46 6.35,18.19 4.24,4.74 9.77,8.63 16.59,11.66 6.83,3.03 14.42,5.64 22.79,7.82 8.38,2.18 16.65,4.41 24.82,6.68 8.16,2.27 15.7,5.17 22.63,8.67 6.92,3.51 12.45,7.91 16.59,13.22 4.13,5.31 6.2,12.23 6.2,20.76 0,12.7 -3.67,23.26 -11.01,31.7 -7.33,8.43 -17.31,14.83 -29.92,19.19 -12.61,4.36 -26.78,6.54 -42.48,6.54z"/>
    <path id="24" class="fil2" d="M11025.41 18767.34l119.69 0 -1.86 8.81 -119.7 0 1.87 -8.81zm-19.23 96.67l136.44 0 -2.17 8.81 -146.67 0 43.41 -199.02 142.02 0 -1.86 8.82 -131.79 0 -39.38 181.39z"/>
    <path id="25" class="fil2" d="M11300.46 18724.13c14.68,0 26.57,2.65 35.67,7.96 9.09,5.3 15.24,12.6 18.44,21.89 3.21,9.29 3.47,20.09 0.77,32.41l-18.91 86.43 -10.23 0 18.91 -86.43c3.51,-16.49 1.4,-29.52 -6.36,-39.09 -7.74,-9.57 -21.23,-14.36 -40.46,-14.36 -19.44,0 -35.71,4.93 -48.84,14.78 -13.12,9.86 -21.76,24.45 -25.9,43.79l-17.66 81.31 -10.25 0 31.95 -147.56 10.23 0 -9.3 42.65 -3.72 -0.85c7.64,-14.98 17.98,-25.88 31.01,-32.7 13.02,-6.82 27.91,-10.23 44.65,-10.23z"/>
    <path id="26" class="fil2" d="M11471.95 18873.67c-14.89,0 -27.76,-2.41 -38.61,-7.25 -10.85,-4.83 -19.12,-11.8 -24.8,-20.89 -5.7,-9.1 -8.53,-20.09 -8.53,-32.98 0,-16.87 3.77,-31.94 11.31,-45.21 7.55,-13.27 17.88,-23.79 31.02,-31.56 13.12,-7.77 27.95,-11.65 44.49,-11.65 13.85,0 25.74,2.41 35.66,7.25 9.93,4.83 17.57,11.79 22.95,20.89 5.38,9.1 8.06,20 8.06,32.7 0,2.65 -0.15,5.31 -0.47,7.96 -0.3,2.65 -0.66,5.12 -1.08,7.39l-144.2 0 1.87 -7.96 137.67 0 -4.34 3.98c2.49,-13.84 1.56,-25.45 -2.79,-34.83 -4.34,-9.38 -11.16,-16.53 -20.46,-21.46 -9.3,-4.93 -20.36,-7.39 -33.18,-7.39 -14.68,0 -27.8,3.45 -39.38,10.37 -11.58,6.92 -20.67,16.35 -27.29,28.29 -6.61,11.94 -9.93,25.59 -9.93,40.94 0,17.06 5.38,30.14 16.13,39.24 10.75,9.09 26.36,13.64 46.83,13.64 11.78,0 22.63,-1.84 32.55,-5.54 9.93,-3.7 18.1,-8.86 24.5,-15.5l4.96 6.54c-6.61,7.02 -15.5,12.61 -26.66,16.78 -11.16,4.17 -23.26,6.25 -36.28,6.25z"/>
    <path id="27" class="fil2" d="M11587.3 18872.82l31.95 -147.56 10.23 0 -9.93 45.21 -1.85 -3.13c6.82,-13.84 16.27,-24.5 28.37,-31.98 12.09,-7.49 27.44,-11.23 46.05,-11.23l-1.86 9.38c-0.62,0 -1.24,0 -1.86,0 -0.62,0 -1.25,0 -1.87,0 -19.01,0 -34.67,5.26 -46.97,15.78 -12.31,10.52 -20.73,26.2 -25.28,47.05l-16.74 76.48 -10.24 0z"/>
    <path id="28" class="fil2" d="M11758.79 18928.83c-14.68,0 -27.91,-2.09 -39.7,-6.26 -11.78,-4.17 -21.29,-10.04 -28.52,-17.62l7.44 -6.83c6.41,7.21 14.94,12.7 25.58,16.49 10.65,3.79 22.58,5.69 35.81,5.69 22.54,0 40.22,-4.83 53.03,-14.5 12.82,-9.67 21.4,-24.92 25.74,-45.77l9.93 -45.21 7.13 -19.05 1.23 -19.33 11.17 -51.18 9.93 0 -28.84 133.34c-5.38,24.64 -15.3,42.51 -29.78,53.6 -14.47,11.09 -34.52,16.63 -60.15,16.63zm11.48 -61.13c-14.48,0 -26.93,-2.32 -37.37,-6.96 -10.45,-4.65 -18.51,-11.33 -24.19,-20.05 -5.69,-8.72 -8.53,-19.05 -8.53,-30.99 0,-12.32 2.28,-23.64 6.82,-33.97 4.55,-10.33 10.9,-19.38 19.07,-27.15 8.17,-7.77 17.83,-13.79 28.99,-18.06 11.17,-4.26 23.47,-6.39 36.91,-6.39 13.85,0 25.84,2.22 35.97,6.68 10.12,4.45 17.99,10.94 23.56,19.47 5.58,8.53 8.38,18.96 8.38,31.28 0,16.11 -3.78,30.65 -11.32,43.64 -7.54,12.98 -18.03,23.31 -31.47,30.99 -13.44,7.67 -29.05,11.51 -46.82,11.51zm1.23 -8.53c15.71,0 29.61,-3.31 41.71,-9.95 12.09,-6.63 21.66,-15.68 28.68,-27.15 7.04,-11.47 10.55,-24.5 10.55,-39.09 0,-15.92 -5.32,-28.24 -15.97,-36.96 -10.66,-8.72 -25.69,-13.08 -45.12,-13.08 -15.51,0 -29.31,3.27 -41.4,9.81 -12.1,6.54 -21.71,15.54 -28.84,27.01 -7.14,11.46 -10.7,24.59 -10.7,39.37 0,15.93 5.37,28.25 16.13,36.96 10.74,8.72 25.74,13.08 44.96,13.08z"/>
    <path id="29" class="fil2" d="M11896.47 18928.83c-7.02,0 -13.74,-1.14 -20.16,-3.41 -6.4,-2.28 -11.36,-5.5 -14.87,-9.67l6.81 -6.82c3.52,3.98 7.7,6.92 12.57,8.81 4.85,1.9 10.48,2.84 16.89,2.84 7.23,0 14.06,-1.89 20.46,-5.68 6.42,-3.79 13.34,-10.81 20.78,-21.04l17.37 -24.45 2.17 -2.28 100.79 -141.87 11.16 0 -122.49 171.73c-6,8.15 -11.63,14.54 -16.91,19.19 -5.26,4.64 -10.7,7.91 -16.27,9.81 -5.58,1.89 -11.68,2.84 -18.3,2.84zm59.23 -52.6l-42.48 -150.97 10.54 0 39.38 141.31 -7.44 9.66z"/>
   </g>
  </g>
 </g>
</svg>
